<?xml version="1.0" encoding="utf-8" standalone="no"?>
<!DOCTYPE svg PUBLIC "-//W3C//DTD SVG 1.1//EN"
  "http://www.w3.org/Graphics/SVG/1.1/DTD/svg11.dtd">
<svg xmlns:xlink="http://www.w3.org/1999/xlink" width="992.16pt" height="712.8pt" viewBox="0 0 992.16 712.8" xmlns="http://www.w3.org/2000/svg" version="1.1">
 <metadata>
  <rdf:RDF xmlns:dc="http://purl.org/dc/elements/1.1/" xmlns:cc="http://creativecommons.org/ns#" xmlns:rdf="http://www.w3.org/1999/02/22-rdf-syntax-ns#">
   <cc:Work>
    <dc:type rdf:resource="http://purl.org/dc/dcmitype/StillImage"/>
    <dc:date>2026-01-17T12:49:11.269695</dc:date>
    <dc:format>image/svg+xml</dc:format>
    <dc:creator>
     <cc:Agent>
      <dc:title>Matplotlib v3.10.8, https://matplotlib.org/</dc:title>
     </cc:Agent>
    </dc:creator>
   </cc:Work>
  </rdf:RDF>
 </metadata>
 <defs>
  <style type="text/css">*{stroke-linejoin: round; stroke-linecap: butt}</style>
 </defs>
 <g id="figure_1">
  <g id="patch_1">
   <path d="M 0 712.8 
L 992.16 712.8 
L 992.16 0 
L 0 0 
z
" style="fill: #ffffff"/>
  </g>
  <g id="axes_1">
   <g id="patch_2">
    <path d="M 327.0672 480.0168 
L 665.0928 480.0168 
Q 672.0768 480.0168 672.0768 473.0328 
L 672.0768 239.7672 
Q 672.0768 232.7832 665.0928 232.7832 
L 327.0672 232.7832 
Q 320.0832 232.7832 320.0832 239.7672 
L 320.0832 473.0328 
Q 320.0832 480.0168 327.0672 480.0168 
z
" clip-path="url(#p490b26a321)" style="fill: #f5e6d3; stroke: #8b7355; stroke-width: 3; stroke-linejoin: miter"/>
   </g>
   <g id="line2d_1">
    <path d="M 111.96 572.904 
L 167.832 572.904 
" clip-path="url(#p490b26a321)" style="fill: none; stroke: #000000; stroke-width: 3; stroke-linecap: square"/>
   </g>
   <g id="line2d_2">
    <path d="M 111.96 614.808 
L 167.832 614.808 
" clip-path="url(#p490b26a321)" style="fill: none; stroke: #e85a4f; stroke-width: 4; stroke-linecap: square"/>
   </g>
   <g id="text_1">
    <!-- ESTAT Energy System Model -->
    <g style="fill: #1e4557" transform="translate(336.584687 47.560625) scale(0.2 -0.2)">
     <defs>
      <path id="DejaVuSans-Bold-45" d="M 588 4666 
L 3834 4666 
L 3834 3756 
L 1791 3756 
L 1791 2888 
L 3713 2888 
L 3713 1978 
L 1791 1978 
L 1791 909 
L 3903 909 
L 3903 0 
L 588 0 
L 588 4666 
z
" transform="scale(0.015625)"/>
      <path id="DejaVuSans-Bold-53" d="M 3834 4519 
L 3834 3531 
Q 3450 3703 3084 3790 
Q 2719 3878 2394 3878 
Q 1963 3878 1756 3759 
Q 1550 3641 1550 3391 
Q 1550 3203 1689 3098 
Q 1828 2994 2194 2919 
L 2706 2816 
Q 3484 2659 3812 2340 
Q 4141 2022 4141 1434 
Q 4141 663 3683 286 
Q 3225 -91 2284 -91 
Q 1841 -91 1394 -6 
Q 947 78 500 244 
L 500 1259 
Q 947 1022 1364 901 
Q 1781 781 2169 781 
Q 2563 781 2772 912 
Q 2981 1044 2981 1288 
Q 2981 1506 2839 1625 
Q 2697 1744 2272 1838 
L 1806 1941 
Q 1106 2091 782 2419 
Q 459 2747 459 3303 
Q 459 4000 909 4375 
Q 1359 4750 2203 4750 
Q 2588 4750 2994 4692 
Q 3400 4634 3834 4519 
z
" transform="scale(0.015625)"/>
      <path id="DejaVuSans-Bold-54" d="M 31 4666 
L 4331 4666 
L 4331 3756 
L 2784 3756 
L 2784 0 
L 1581 0 
L 1581 3756 
L 31 3756 
L 31 4666 
z
" transform="scale(0.015625)"/>
      <path id="DejaVuSans-Bold-41" d="M 3419 850 
L 1538 850 
L 1241 0 
L 31 0 
L 1759 4666 
L 3194 4666 
L 4922 0 
L 3713 0 
L 3419 850 
z
M 1838 1716 
L 3116 1716 
L 2478 3572 
L 1838 1716 
z
" transform="scale(0.015625)"/>
      <path id="DejaVuSans-Bold-20" transform="scale(0.015625)"/>
      <path id="DejaVuSans-Bold-6e" d="M 4056 2131 
L 4056 0 
L 2931 0 
L 2931 347 
L 2931 1631 
Q 2931 2084 2911 2256 
Q 2891 2428 2841 2509 
Q 2775 2619 2662 2680 
Q 2550 2741 2406 2741 
Q 2056 2741 1856 2470 
Q 1656 2200 1656 1722 
L 1656 0 
L 538 0 
L 538 3500 
L 1656 3500 
L 1656 2988 
Q 1909 3294 2193 3439 
Q 2478 3584 2822 3584 
Q 3428 3584 3742 3212 
Q 4056 2841 4056 2131 
z
" transform="scale(0.015625)"/>
      <path id="DejaVuSans-Bold-65" d="M 4031 1759 
L 4031 1441 
L 1416 1441 
Q 1456 1047 1700 850 
Q 1944 653 2381 653 
Q 2734 653 3104 758 
Q 3475 863 3866 1075 
L 3866 213 
Q 3469 63 3072 -14 
Q 2675 -91 2278 -91 
Q 1328 -91 801 392 
Q 275 875 275 1747 
Q 275 2603 792 3093 
Q 1309 3584 2216 3584 
Q 3041 3584 3536 3087 
Q 4031 2591 4031 1759 
z
M 2881 2131 
Q 2881 2450 2695 2645 
Q 2509 2841 2209 2841 
Q 1884 2841 1681 2658 
Q 1478 2475 1428 2131 
L 2881 2131 
z
" transform="scale(0.015625)"/>
      <path id="DejaVuSans-Bold-72" d="M 3138 2547 
Q 2991 2616 2845 2648 
Q 2700 2681 2553 2681 
Q 2122 2681 1889 2404 
Q 1656 2128 1656 1613 
L 1656 0 
L 538 0 
L 538 3500 
L 1656 3500 
L 1656 2925 
Q 1872 3269 2151 3426 
Q 2431 3584 2822 3584 
Q 2878 3584 2943 3579 
Q 3009 3575 3134 3559 
L 3138 2547 
z
" transform="scale(0.015625)"/>
      <path id="DejaVuSans-Bold-67" d="M 2919 594 
Q 2688 288 2409 144 
Q 2131 0 1766 0 
Q 1125 0 706 504 
Q 288 1009 288 1791 
Q 288 2575 706 3076 
Q 1125 3578 1766 3578 
Q 2131 3578 2409 3434 
Q 2688 3291 2919 2981 
L 2919 3500 
L 4044 3500 
L 4044 353 
Q 4044 -491 3511 -936 
Q 2978 -1381 1966 -1381 
Q 1638 -1381 1331 -1331 
Q 1025 -1281 716 -1178 
L 716 -306 
Q 1009 -475 1290 -558 
Q 1572 -641 1856 -641 
Q 2406 -641 2662 -400 
Q 2919 -159 2919 353 
L 2919 594 
z
M 2181 2772 
Q 1834 2772 1640 2515 
Q 1447 2259 1447 1791 
Q 1447 1309 1634 1061 
Q 1822 813 2181 813 
Q 2531 813 2725 1069 
Q 2919 1325 2919 1791 
Q 2919 2259 2725 2515 
Q 2531 2772 2181 2772 
z
" transform="scale(0.015625)"/>
      <path id="DejaVuSans-Bold-79" d="M 78 3500 
L 1197 3500 
L 2138 1125 
L 2938 3500 
L 4056 3500 
L 2584 -331 
Q 2363 -916 2067 -1148 
Q 1772 -1381 1288 -1381 
L 641 -1381 
L 641 -647 
L 991 -647 
Q 1275 -647 1404 -556 
Q 1534 -466 1606 -231 
L 1638 -134 
L 78 3500 
z
" transform="scale(0.015625)"/>
      <path id="DejaVuSans-Bold-73" d="M 3272 3391 
L 3272 2541 
Q 2913 2691 2578 2766 
Q 2244 2841 1947 2841 
Q 1628 2841 1473 2761 
Q 1319 2681 1319 2516 
Q 1319 2381 1436 2309 
Q 1553 2238 1856 2203 
L 2053 2175 
Q 2913 2066 3209 1816 
Q 3506 1566 3506 1031 
Q 3506 472 3093 190 
Q 2681 -91 1863 -91 
Q 1516 -91 1145 -36 
Q 775 19 384 128 
L 384 978 
Q 719 816 1070 734 
Q 1422 653 1784 653 
Q 2113 653 2278 743 
Q 2444 834 2444 1013 
Q 2444 1163 2330 1236 
Q 2216 1309 1875 1350 
L 1678 1375 
Q 931 1469 631 1722 
Q 331 1975 331 2491 
Q 331 3047 712 3315 
Q 1094 3584 1881 3584 
Q 2191 3584 2531 3537 
Q 2872 3491 3272 3391 
z
" transform="scale(0.015625)"/>
      <path id="DejaVuSans-Bold-74" d="M 1759 4494 
L 1759 3500 
L 2913 3500 
L 2913 2700 
L 1759 2700 
L 1759 1216 
Q 1759 972 1856 886 
Q 1953 800 2241 800 
L 2816 800 
L 2816 0 
L 1856 0 
Q 1194 0 917 276 
Q 641 553 641 1216 
L 641 2700 
L 84 2700 
L 84 3500 
L 641 3500 
L 641 4494 
L 1759 4494 
z
" transform="scale(0.015625)"/>
      <path id="DejaVuSans-Bold-6d" d="M 3781 2919 
Q 3994 3244 4286 3414 
Q 4578 3584 4928 3584 
Q 5531 3584 5847 3212 
Q 6163 2841 6163 2131 
L 6163 0 
L 5038 0 
L 5038 1825 
Q 5041 1866 5042 1909 
Q 5044 1953 5044 2034 
Q 5044 2406 4934 2573 
Q 4825 2741 4581 2741 
Q 4263 2741 4089 2478 
Q 3916 2216 3909 1719 
L 3909 0 
L 2784 0 
L 2784 1825 
Q 2784 2406 2684 2573 
Q 2584 2741 2328 2741 
Q 2006 2741 1831 2477 
Q 1656 2213 1656 1722 
L 1656 0 
L 531 0 
L 531 3500 
L 1656 3500 
L 1656 2988 
Q 1863 3284 2130 3434 
Q 2397 3584 2719 3584 
Q 3081 3584 3359 3409 
Q 3638 3234 3781 2919 
z
" transform="scale(0.015625)"/>
      <path id="DejaVuSans-Bold-4d" d="M 588 4666 
L 2119 4666 
L 3181 2169 
L 4250 4666 
L 5778 4666 
L 5778 0 
L 4641 0 
L 4641 3413 
L 3566 897 
L 2803 897 
L 1728 3413 
L 1728 0 
L 588 0 
L 588 4666 
z
" transform="scale(0.015625)"/>
      <path id="DejaVuSans-Bold-6f" d="M 2203 2784 
Q 1831 2784 1636 2517 
Q 1441 2250 1441 1747 
Q 1441 1244 1636 976 
Q 1831 709 2203 709 
Q 2569 709 2762 976 
Q 2956 1244 2956 1747 
Q 2956 2250 2762 2517 
Q 2569 2784 2203 2784 
z
M 2203 3584 
Q 3106 3584 3614 3096 
Q 4122 2609 4122 1747 
Q 4122 884 3614 396 
Q 3106 -91 2203 -91 
Q 1297 -91 786 396 
Q 275 884 275 1747 
Q 275 2609 786 3096 
Q 1297 3584 2203 3584 
z
" transform="scale(0.015625)"/>
      <path id="DejaVuSans-Bold-64" d="M 2919 2988 
L 2919 4863 
L 4044 4863 
L 4044 0 
L 2919 0 
L 2919 506 
Q 2688 197 2409 53 
Q 2131 -91 1766 -91 
Q 1119 -91 703 423 
Q 288 938 288 1747 
Q 288 2556 703 3070 
Q 1119 3584 1766 3584 
Q 2128 3584 2408 3439 
Q 2688 3294 2919 2988 
z
M 2181 722 
Q 2541 722 2730 984 
Q 2919 1247 2919 1747 
Q 2919 2247 2730 2509 
Q 2541 2772 2181 2772 
Q 1825 2772 1636 2509 
Q 1447 2247 1447 1747 
Q 1447 1247 1636 984 
Q 1825 722 2181 722 
z
" transform="scale(0.015625)"/>
      <path id="DejaVuSans-Bold-6c" d="M 538 4863 
L 1656 4863 
L 1656 0 
L 538 0 
L 538 4863 
z
" transform="scale(0.015625)"/>
     </defs>
     <use xlink:href="#DejaVuSans-Bold-45"/>
     <use xlink:href="#DejaVuSans-Bold-53" transform="translate(68.310547 0)"/>
     <use xlink:href="#DejaVuSans-Bold-54" transform="translate(140.332031 0)"/>
     <use xlink:href="#DejaVuSans-Bold-41" transform="translate(200.794922 0)"/>
     <use xlink:href="#DejaVuSans-Bold-54" transform="translate(270.4375 0)"/>
     <use xlink:href="#DejaVuSans-Bold-20" transform="translate(338.650391 0)"/>
     <use xlink:href="#DejaVuSans-Bold-45" transform="translate(373.464844 0)"/>
     <use xlink:href="#DejaVuSans-Bold-6e" transform="translate(441.775391 0)"/>
     <use xlink:href="#DejaVuSans-Bold-65" transform="translate(512.966797 0)"/>
     <use xlink:href="#DejaVuSans-Bold-72" transform="translate(580.789062 0)"/>
     <use xlink:href="#DejaVuSans-Bold-67" transform="translate(630.105469 0)"/>
     <use xlink:href="#DejaVuSans-Bold-79" transform="translate(701.6875 0)"/>
     <use xlink:href="#DejaVuSans-Bold-20" transform="translate(766.873047 0)"/>
     <use xlink:href="#DejaVuSans-Bold-53" transform="translate(801.6875 0)"/>
     <use xlink:href="#DejaVuSans-Bold-79" transform="translate(873.708984 0)"/>
     <use xlink:href="#DejaVuSans-Bold-73" transform="translate(938.894531 0)"/>
     <use xlink:href="#DejaVuSans-Bold-74" transform="translate(998.416016 0)"/>
     <use xlink:href="#DejaVuSans-Bold-65" transform="translate(1046.21875 0)"/>
     <use xlink:href="#DejaVuSans-Bold-6d" transform="translate(1114.041016 0)"/>
     <use xlink:href="#DejaVuSans-Bold-20" transform="translate(1218.240234 0)"/>
     <use xlink:href="#DejaVuSans-Bold-4d" transform="translate(1253.054688 0)"/>
     <use xlink:href="#DejaVuSans-Bold-6f" transform="translate(1352.566406 0)"/>
     <use xlink:href="#DejaVuSans-Bold-64" transform="translate(1421.267578 0)"/>
     <use xlink:href="#DejaVuSans-Bold-65" transform="translate(1492.849609 0)"/>
     <use xlink:href="#DejaVuSans-Bold-6c" transform="translate(1560.671875 0)"/>
    </g>
   </g>
   <g id="text_2">
    <!-- Solar -->
    <g style="fill: #ff8c00" transform="translate(167.210156 238.286437) scale(0.1 -0.1)">
     <defs>
      <path id="DejaVuSans-Bold-61" d="M 2106 1575 
Q 1756 1575 1579 1456 
Q 1403 1338 1403 1106 
Q 1403 894 1545 773 
Q 1688 653 1941 653 
Q 2256 653 2472 879 
Q 2688 1106 2688 1447 
L 2688 1575 
L 2106 1575 
z
M 3816 1997 
L 3816 0 
L 2688 0 
L 2688 519 
Q 2463 200 2181 54 
Q 1900 -91 1497 -91 
Q 953 -91 614 226 
Q 275 544 275 1050 
Q 275 1666 698 1953 
Q 1122 2241 2028 2241 
L 2688 2241 
L 2688 2328 
Q 2688 2594 2478 2717 
Q 2269 2841 1825 2841 
Q 1466 2841 1156 2769 
Q 847 2697 581 2553 
L 581 3406 
Q 941 3494 1303 3539 
Q 1666 3584 2028 3584 
Q 2975 3584 3395 3211 
Q 3816 2838 3816 1997 
z
" transform="scale(0.015625)"/>
     </defs>
     <use xlink:href="#DejaVuSans-Bold-53"/>
     <use xlink:href="#DejaVuSans-Bold-6f" transform="translate(72.021484 0)"/>
     <use xlink:href="#DejaVuSans-Bold-6c" transform="translate(140.722656 0)"/>
     <use xlink:href="#DejaVuSans-Bold-61" transform="translate(175 0)"/>
     <use xlink:href="#DejaVuSans-Bold-72" transform="translate(242.480469 0)"/>
    </g>
    <!-- Irradiance -->
    <g style="fill: #ff8c00" transform="translate(153.052344 249.48425) scale(0.1 -0.1)">
     <defs>
      <path id="DejaVuSans-Bold-49" d="M 588 4666 
L 1791 4666 
L 1791 0 
L 588 0 
L 588 4666 
z
" transform="scale(0.015625)"/>
      <path id="DejaVuSans-Bold-69" d="M 538 3500 
L 1656 3500 
L 1656 0 
L 538 0 
L 538 3500 
z
M 538 4863 
L 1656 4863 
L 1656 3950 
L 538 3950 
L 538 4863 
z
" transform="scale(0.015625)"/>
      <path id="DejaVuSans-Bold-63" d="M 3366 3391 
L 3366 2478 
Q 3138 2634 2908 2709 
Q 2678 2784 2431 2784 
Q 1963 2784 1702 2511 
Q 1441 2238 1441 1747 
Q 1441 1256 1702 982 
Q 1963 709 2431 709 
Q 2694 709 2930 787 
Q 3166 866 3366 1019 
L 3366 103 
Q 3103 6 2833 -42 
Q 2563 -91 2291 -91 
Q 1344 -91 809 395 
Q 275 881 275 1747 
Q 275 2613 809 3098 
Q 1344 3584 2291 3584 
Q 2566 3584 2833 3536 
Q 3100 3488 3366 3391 
z
" transform="scale(0.015625)"/>
     </defs>
     <use xlink:href="#DejaVuSans-Bold-49"/>
     <use xlink:href="#DejaVuSans-Bold-72" transform="translate(37.207031 0)"/>
     <use xlink:href="#DejaVuSans-Bold-72" transform="translate(86.523438 0)"/>
     <use xlink:href="#DejaVuSans-Bold-61" transform="translate(135.839844 0)"/>
     <use xlink:href="#DejaVuSans-Bold-64" transform="translate(203.320312 0)"/>
     <use xlink:href="#DejaVuSans-Bold-69" transform="translate(274.902344 0)"/>
     <use xlink:href="#DejaVuSans-Bold-61" transform="translate(309.179688 0)"/>
     <use xlink:href="#DejaVuSans-Bold-6e" transform="translate(376.660156 0)"/>
     <use xlink:href="#DejaVuSans-Bold-63" transform="translate(447.851562 0)"/>
     <use xlink:href="#DejaVuSans-Bold-65" transform="translate(507.128906 0)"/>
    </g>
   </g>
   <g id="text_3">
    <!-- T_outdoor -->
    <g style="fill: #4a90a4" transform="translate(104.701844 503.678437) scale(0.1 -0.1)">
     <defs>
      <path id="DejaVuSans-Bold-5f" d="M 3200 -916 
L 3200 -1509 
L 0 -1509 
L 0 -916 
L 3200 -916 
z
" transform="scale(0.015625)"/>
      <path id="DejaVuSans-Bold-75" d="M 500 1363 
L 500 3500 
L 1625 3500 
L 1625 3150 
Q 1625 2866 1622 2436 
Q 1619 2006 1619 1863 
Q 1619 1441 1641 1255 
Q 1663 1069 1716 984 
Q 1784 875 1895 815 
Q 2006 756 2150 756 
Q 2500 756 2700 1025 
Q 2900 1294 2900 1772 
L 2900 3500 
L 4019 3500 
L 4019 0 
L 2900 0 
L 2900 506 
Q 2647 200 2364 54 
Q 2081 -91 1741 -91 
Q 1134 -91 817 281 
Q 500 653 500 1363 
z
" transform="scale(0.015625)"/>
     </defs>
     <use xlink:href="#DejaVuSans-Bold-54"/>
     <use xlink:href="#DejaVuSans-Bold-5f" transform="translate(68.212891 0)"/>
     <use xlink:href="#DejaVuSans-Bold-6f" transform="translate(118.212891 0)"/>
     <use xlink:href="#DejaVuSans-Bold-75" transform="translate(186.914062 0)"/>
     <use xlink:href="#DejaVuSans-Bold-74" transform="translate(258.105469 0)"/>
     <use xlink:href="#DejaVuSans-Bold-64" transform="translate(305.908203 0)"/>
     <use xlink:href="#DejaVuSans-Bold-6f" transform="translate(377.490234 0)"/>
     <use xlink:href="#DejaVuSans-Bold-6f" transform="translate(446.191406 0)"/>
     <use xlink:href="#DejaVuSans-Bold-72" transform="translate(514.892578 0)"/>
    </g>
   </g>
   <g id="patch_3">
    <path d="M 307.512 234.18 
L 496.08 164.34 
L 684.648 234.18 
z
" clip-path="url(#p490b26a321)" style="fill: #8b4513; stroke: #5d3a1a; stroke-width: 3; stroke-linejoin: miter"/>
   </g>
   <g id="patch_4">
    <path d="M 410.8752 357.7968 
L 523.0848 357.7968 
Q 526.5768 357.7968 526.5768 354.3048 
L 526.5768 277.0152 
Q 526.5768 273.5232 523.0848 273.5232 
L 410.8752 273.5232 
Q 407.3832 273.5232 407.3832 277.0152 
L 407.3832 354.3048 
Q 407.3832 357.7968 410.8752 357.7968 
z
" clip-path="url(#p490b26a321)" style="fill: #87ceeb; stroke: #8b7355; stroke-width: 2; stroke-linejoin: miter"/>
   </g>
   <g id="text_4">
    <!-- T_indoor -->
    <g style="fill: #e85a4f" transform="translate(439.470703 384.190594) scale(0.09 -0.09)">
     <use xlink:href="#DejaVuSans-Bold-54"/>
     <use xlink:href="#DejaVuSans-Bold-5f" transform="translate(68.212891 0)"/>
     <use xlink:href="#DejaVuSans-Bold-69" transform="translate(118.212891 0)"/>
     <use xlink:href="#DejaVuSans-Bold-6e" transform="translate(152.490234 0)"/>
     <use xlink:href="#DejaVuSans-Bold-64" transform="translate(223.681641 0)"/>
     <use xlink:href="#DejaVuSans-Bold-6f" transform="translate(295.263672 0)"/>
     <use xlink:href="#DejaVuSans-Bold-6f" transform="translate(363.964844 0)"/>
     <use xlink:href="#DejaVuSans-Bold-72" transform="translate(432.666016 0)"/>
    </g>
   </g>
   <g id="text_5">
    <!-- Thermal -->
    <g style="fill: #8b7355" transform="translate(514.5275 397.39875) scale(0.08 -0.08)">
     <defs>
      <path id="DejaVuSans-54" d="M -19 4666 
L 3928 4666 
L 3928 4134 
L 2272 4134 
L 2272 0 
L 1638 0 
L 1638 4134 
L -19 4134 
L -19 4666 
z
" transform="scale(0.015625)"/>
      <path id="DejaVuSans-68" d="M 3513 2113 
L 3513 0 
L 2938 0 
L 2938 2094 
Q 2938 2591 2744 2837 
Q 2550 3084 2163 3084 
Q 1697 3084 1428 2787 
Q 1159 2491 1159 1978 
L 1159 0 
L 581 0 
L 581 4863 
L 1159 4863 
L 1159 2956 
Q 1366 3272 1645 3428 
Q 1925 3584 2291 3584 
Q 2894 3584 3203 3211 
Q 3513 2838 3513 2113 
z
" transform="scale(0.015625)"/>
      <path id="DejaVuSans-65" d="M 3597 1894 
L 3597 1613 
L 953 1613 
Q 991 1019 1311 708 
Q 1631 397 2203 397 
Q 2534 397 2845 478 
Q 3156 559 3463 722 
L 3463 178 
Q 3153 47 2828 -22 
Q 2503 -91 2169 -91 
Q 1331 -91 842 396 
Q 353 884 353 1716 
Q 353 2575 817 3079 
Q 1281 3584 2069 3584 
Q 2775 3584 3186 3129 
Q 3597 2675 3597 1894 
z
M 3022 2063 
Q 3016 2534 2758 2815 
Q 2500 3097 2075 3097 
Q 1594 3097 1305 2825 
Q 1016 2553 972 2059 
L 3022 2063 
z
" transform="scale(0.015625)"/>
      <path id="DejaVuSans-72" d="M 2631 2963 
Q 2534 3019 2420 3045 
Q 2306 3072 2169 3072 
Q 1681 3072 1420 2755 
Q 1159 2438 1159 1844 
L 1159 0 
L 581 0 
L 581 3500 
L 1159 3500 
L 1159 2956 
Q 1341 3275 1631 3429 
Q 1922 3584 2338 3584 
Q 2397 3584 2469 3576 
Q 2541 3569 2628 3553 
L 2631 2963 
z
" transform="scale(0.015625)"/>
      <path id="DejaVuSans-6d" d="M 3328 2828 
Q 3544 3216 3844 3400 
Q 4144 3584 4550 3584 
Q 5097 3584 5394 3201 
Q 5691 2819 5691 2113 
L 5691 0 
L 5113 0 
L 5113 2094 
Q 5113 2597 4934 2840 
Q 4756 3084 4391 3084 
Q 3944 3084 3684 2787 
Q 3425 2491 3425 1978 
L 3425 0 
L 2847 0 
L 2847 2094 
Q 2847 2600 2669 2842 
Q 2491 3084 2119 3084 
Q 1678 3084 1418 2786 
Q 1159 2488 1159 1978 
L 1159 0 
L 581 0 
L 581 3500 
L 1159 3500 
L 1159 2956 
Q 1356 3278 1631 3431 
Q 1906 3584 2284 3584 
Q 2666 3584 2933 3390 
Q 3200 3197 3328 2828 
z
" transform="scale(0.015625)"/>
      <path id="DejaVuSans-61" d="M 2194 1759 
Q 1497 1759 1228 1600 
Q 959 1441 959 1056 
Q 959 750 1161 570 
Q 1363 391 1709 391 
Q 2188 391 2477 730 
Q 2766 1069 2766 1631 
L 2766 1759 
L 2194 1759 
z
M 3341 1997 
L 3341 0 
L 2766 0 
L 2766 531 
Q 2569 213 2275 61 
Q 1981 -91 1556 -91 
Q 1019 -91 701 211 
Q 384 513 384 1019 
Q 384 1609 779 1909 
Q 1175 2209 1959 2209 
L 2766 2209 
L 2766 2266 
Q 2766 2663 2505 2880 
Q 2244 3097 1772 3097 
Q 1472 3097 1187 3025 
Q 903 2953 641 2809 
L 641 3341 
Q 956 3463 1253 3523 
Q 1550 3584 1831 3584 
Q 2591 3584 2966 3190 
Q 3341 2797 3341 1997 
z
" transform="scale(0.015625)"/>
      <path id="DejaVuSans-6c" d="M 603 4863 
L 1178 4863 
L 1178 0 
L 603 0 
L 603 4863 
z
" transform="scale(0.015625)"/>
     </defs>
     <use xlink:href="#DejaVuSans-54"/>
     <use xlink:href="#DejaVuSans-68" transform="translate(61.083984 0)"/>
     <use xlink:href="#DejaVuSans-65" transform="translate(124.462891 0)"/>
     <use xlink:href="#DejaVuSans-72" transform="translate(185.986328 0)"/>
     <use xlink:href="#DejaVuSans-6d" transform="translate(225.349609 0)"/>
     <use xlink:href="#DejaVuSans-61" transform="translate(322.761719 0)"/>
     <use xlink:href="#DejaVuSans-6c" transform="translate(384.041016 0)"/>
    </g>
    <!-- Mass -->
    <g style="fill: #8b7355" transform="translate(520.93 406.357) scale(0.08 -0.08)">
     <defs>
      <path id="DejaVuSans-4d" d="M 628 4666 
L 1569 4666 
L 2759 1491 
L 3956 4666 
L 4897 4666 
L 4897 0 
L 4281 0 
L 4281 4097 
L 3078 897 
L 2444 897 
L 1241 4097 
L 1241 0 
L 628 0 
L 628 4666 
z
" transform="scale(0.015625)"/>
      <path id="DejaVuSans-73" d="M 2834 3397 
L 2834 2853 
Q 2591 2978 2328 3040 
Q 2066 3103 1784 3103 
Q 1356 3103 1142 2972 
Q 928 2841 928 2578 
Q 928 2378 1081 2264 
Q 1234 2150 1697 2047 
L 1894 2003 
Q 2506 1872 2764 1633 
Q 3022 1394 3022 966 
Q 3022 478 2636 193 
Q 2250 -91 1575 -91 
Q 1294 -91 989 -36 
Q 684 19 347 128 
L 347 722 
Q 666 556 975 473 
Q 1284 391 1588 391 
Q 1994 391 2212 530 
Q 2431 669 2431 922 
Q 2431 1156 2273 1281 
Q 2116 1406 1581 1522 
L 1381 1569 
Q 847 1681 609 1914 
Q 372 2147 372 2553 
Q 372 3047 722 3315 
Q 1072 3584 1716 3584 
Q 2034 3584 2315 3537 
Q 2597 3491 2834 3397 
z
" transform="scale(0.015625)"/>
     </defs>
     <use xlink:href="#DejaVuSans-4d"/>
     <use xlink:href="#DejaVuSans-61" transform="translate(86.279297 0)"/>
     <use xlink:href="#DejaVuSans-73" transform="translate(147.558594 0)"/>
     <use xlink:href="#DejaVuSans-73" transform="translate(199.658203 0)"/>
    </g>
   </g>
   <g id="text_6">
    <!-- PV Array -->
    <g style="fill: #1e4557" transform="translate(415.654875 266.144312) scale(0.1 -0.1)">
     <defs>
      <path id="DejaVuSans-Bold-50" d="M 588 4666 
L 2584 4666 
Q 3475 4666 3951 4270 
Q 4428 3875 4428 3144 
Q 4428 2409 3951 2014 
Q 3475 1619 2584 1619 
L 1791 1619 
L 1791 0 
L 588 0 
L 588 4666 
z
M 1791 3794 
L 1791 2491 
L 2456 2491 
Q 2806 2491 2997 2661 
Q 3188 2831 3188 3144 
Q 3188 3456 2997 3625 
Q 2806 3794 2456 3794 
L 1791 3794 
z
" transform="scale(0.015625)"/>
      <path id="DejaVuSans-Bold-56" d="M 31 4666 
L 1241 4666 
L 2478 1222 
L 3713 4666 
L 4922 4666 
L 3194 0 
L 1759 0 
L 31 4666 
z
" transform="scale(0.015625)"/>
     </defs>
     <use xlink:href="#DejaVuSans-Bold-50"/>
     <use xlink:href="#DejaVuSans-Bold-56" transform="translate(73.291016 0)"/>
     <use xlink:href="#DejaVuSans-Bold-20" transform="translate(150.683594 0)"/>
     <use xlink:href="#DejaVuSans-Bold-41" transform="translate(185.498047 0)"/>
     <use xlink:href="#DejaVuSans-Bold-72" transform="translate(262.890625 0)"/>
     <use xlink:href="#DejaVuSans-Bold-72" transform="translate(312.207031 0)"/>
     <use xlink:href="#DejaVuSans-Bold-61" transform="translate(361.523438 0)"/>
     <use xlink:href="#DejaVuSans-Bold-79" transform="translate(425.878906 0)"/>
    </g>
   </g>
   <g id="text_7">
    <!-- Battery -->
    <g style="fill: #2a9749" transform="translate(754.35875 294.080312) scale(0.1 -0.1)">
     <defs>
      <path id="DejaVuSans-Bold-42" d="M 2456 2859 
Q 2741 2859 2887 2984 
Q 3034 3109 3034 3353 
Q 3034 3594 2887 3720 
Q 2741 3847 2456 3847 
L 1791 3847 
L 1791 2859 
L 2456 2859 
z
M 2497 819 
Q 2859 819 3042 972 
Q 3225 1125 3225 1434 
Q 3225 1738 3044 1889 
Q 2863 2041 2497 2041 
L 1791 2041 
L 1791 819 
L 2497 819 
z
M 3616 2497 
Q 4003 2384 4215 2081 
Q 4428 1778 4428 1338 
Q 4428 663 3972 331 
Q 3516 0 2584 0 
L 588 0 
L 588 4666 
L 2394 4666 
Q 3366 4666 3802 4372 
Q 4238 4078 4238 3431 
Q 4238 3091 4078 2852 
Q 3919 2613 3616 2497 
z
" transform="scale(0.015625)"/>
     </defs>
     <use xlink:href="#DejaVuSans-Bold-42"/>
     <use xlink:href="#DejaVuSans-Bold-61" transform="translate(76.220703 0)"/>
     <use xlink:href="#DejaVuSans-Bold-74" transform="translate(143.701172 0)"/>
     <use xlink:href="#DejaVuSans-Bold-74" transform="translate(191.503906 0)"/>
     <use xlink:href="#DejaVuSans-Bold-65" transform="translate(239.306641 0)"/>
     <use xlink:href="#DejaVuSans-Bold-72" transform="translate(307.128906 0)"/>
     <use xlink:href="#DejaVuSans-Bold-79" transform="translate(356.445312 0)"/>
    </g>
    <!-- Storage -->
    <g style="fill: #2a9749" transform="translate(753.204062 305.35625) scale(0.1 -0.1)">
     <use xlink:href="#DejaVuSans-Bold-53"/>
     <use xlink:href="#DejaVuSans-Bold-74" transform="translate(72.021484 0)"/>
     <use xlink:href="#DejaVuSans-Bold-6f" transform="translate(119.824219 0)"/>
     <use xlink:href="#DejaVuSans-Bold-72" transform="translate(188.525391 0)"/>
     <use xlink:href="#DejaVuSans-Bold-61" transform="translate(237.841797 0)"/>
     <use xlink:href="#DejaVuSans-Bold-67" transform="translate(305.322266 0)"/>
     <use xlink:href="#DejaVuSans-Bold-65" transform="translate(376.904297 0)"/>
    </g>
   </g>
   <g id="text_8">
    <!-- Grid -->
    <g style="fill: #1e4557" transform="translate(903.2575 294.158437) scale(0.1 -0.1)">
     <defs>
      <path id="DejaVuSans-Bold-47" d="M 4781 347 
Q 4331 128 3847 18 
Q 3363 -91 2847 -91 
Q 1681 -91 1000 561 
Q 319 1213 319 2328 
Q 319 3456 1012 4103 
Q 1706 4750 2913 4750 
Q 3378 4750 3804 4662 
Q 4231 4575 4609 4403 
L 4609 3438 
Q 4219 3659 3833 3768 
Q 3447 3878 3059 3878 
Q 2341 3878 1952 3476 
Q 1563 3075 1563 2328 
Q 1563 1588 1938 1184 
Q 2313 781 3003 781 
Q 3191 781 3352 804 
Q 3513 828 3641 878 
L 3641 1784 
L 2906 1784 
L 2906 2591 
L 4781 2591 
L 4781 347 
z
" transform="scale(0.015625)"/>
     </defs>
     <use xlink:href="#DejaVuSans-Bold-47"/>
     <use xlink:href="#DejaVuSans-Bold-72" transform="translate(82.080078 0)"/>
     <use xlink:href="#DejaVuSans-Bold-69" transform="translate(131.396484 0)"/>
     <use xlink:href="#DejaVuSans-Bold-64" transform="translate(165.673828 0)"/>
    </g>
   </g>
   <g id="text_9">
    <!-- Heat Pump -->
    <g style="fill: #1e4557" transform="translate(744.34625 559.550437) scale(0.1 -0.1)">
     <defs>
      <path id="DejaVuSans-Bold-48" d="M 588 4666 
L 1791 4666 
L 1791 2888 
L 3566 2888 
L 3566 4666 
L 4769 4666 
L 4769 0 
L 3566 0 
L 3566 1978 
L 1791 1978 
L 1791 0 
L 588 0 
L 588 4666 
z
" transform="scale(0.015625)"/>
      <path id="DejaVuSans-Bold-70" d="M 1656 506 
L 1656 -1331 
L 538 -1331 
L 538 3500 
L 1656 3500 
L 1656 2988 
Q 1888 3294 2169 3439 
Q 2450 3584 2816 3584 
Q 3463 3584 3878 3070 
Q 4294 2556 4294 1747 
Q 4294 938 3878 423 
Q 3463 -91 2816 -91 
Q 2450 -91 2169 54 
Q 1888 200 1656 506 
z
M 2400 2772 
Q 2041 2772 1848 2508 
Q 1656 2244 1656 1747 
Q 1656 1250 1848 986 
Q 2041 722 2400 722 
Q 2759 722 2948 984 
Q 3138 1247 3138 1747 
Q 3138 2247 2948 2509 
Q 2759 2772 2400 2772 
z
" transform="scale(0.015625)"/>
     </defs>
     <use xlink:href="#DejaVuSans-Bold-48"/>
     <use xlink:href="#DejaVuSans-Bold-65" transform="translate(83.691406 0)"/>
     <use xlink:href="#DejaVuSans-Bold-61" transform="translate(151.513672 0)"/>
     <use xlink:href="#DejaVuSans-Bold-74" transform="translate(218.994141 0)"/>
     <use xlink:href="#DejaVuSans-Bold-20" transform="translate(266.796875 0)"/>
     <use xlink:href="#DejaVuSans-Bold-50" transform="translate(301.611328 0)"/>
     <use xlink:href="#DejaVuSans-Bold-75" transform="translate(374.902344 0)"/>
     <use xlink:href="#DejaVuSans-Bold-6d" transform="translate(446.09375 0)"/>
     <use xlink:href="#DejaVuSans-Bold-70" transform="translate(550.292969 0)"/>
    </g>
   </g>
   <g id="text_10">
    <!-- Buffer -->
    <g style="fill: #ff6b35" transform="translate(618.182656 664.310437) scale(0.1 -0.1)">
     <defs>
      <path id="DejaVuSans-Bold-66" d="M 2841 4863 
L 2841 4128 
L 2222 4128 
Q 1984 4128 1890 4042 
Q 1797 3956 1797 3744 
L 1797 3500 
L 2753 3500 
L 2753 2700 
L 1797 2700 
L 1797 0 
L 678 0 
L 678 2700 
L 122 2700 
L 122 3500 
L 678 3500 
L 678 3744 
Q 678 4316 997 4589 
Q 1316 4863 1984 4863 
L 2841 4863 
z
" transform="scale(0.015625)"/>
     </defs>
     <use xlink:href="#DejaVuSans-Bold-42"/>
     <use xlink:href="#DejaVuSans-Bold-75" transform="translate(76.220703 0)"/>
     <use xlink:href="#DejaVuSans-Bold-66" transform="translate(147.412109 0)"/>
     <use xlink:href="#DejaVuSans-Bold-66" transform="translate(190.917969 0)"/>
     <use xlink:href="#DejaVuSans-Bold-65" transform="translate(234.423828 0)"/>
     <use xlink:href="#DejaVuSans-Bold-72" transform="translate(302.246094 0)"/>
    </g>
    <!-- Tank -->
    <g style="fill: #ff6b35" transform="translate(622.734219 675.50825) scale(0.1 -0.1)">
     <defs>
      <path id="DejaVuSans-Bold-6b" d="M 538 4863 
L 1656 4863 
L 1656 2216 
L 2944 3500 
L 4244 3500 
L 2534 1894 
L 4378 0 
L 3022 0 
L 1656 1459 
L 1656 0 
L 538 0 
L 538 4863 
z
" transform="scale(0.015625)"/>
     </defs>
     <use xlink:href="#DejaVuSans-Bold-54"/>
     <use xlink:href="#DejaVuSans-Bold-61" transform="translate(55.337891 0)"/>
     <use xlink:href="#DejaVuSans-Bold-6e" transform="translate(122.818359 0)"/>
     <use xlink:href="#DejaVuSans-Bold-6b" transform="translate(194.009766 0)"/>
    </g>
   </g>
   <g id="patch_5">
    <path d="M 155.865762 572.904 
Q 160.848286 572.904 164.712776 572.904 
" style="fill: none; stroke: #000000; stroke-linecap: round"/>
    <path d="M 160.712776 570.904 
L 164.712776 572.904 
L 160.712776 574.904 
z
" style="stroke: #000000; stroke-linecap: round"/>
   </g>
   <g id="text_11">
    <!-- Electrical flow -->
    <g transform="translate(181.8 575.387437) scale(0.09 -0.09)">
     <defs>
      <path id="DejaVuSans-45" d="M 628 4666 
L 3578 4666 
L 3578 4134 
L 1259 4134 
L 1259 2753 
L 3481 2753 
L 3481 2222 
L 1259 2222 
L 1259 531 
L 3634 531 
L 3634 0 
L 628 0 
L 628 4666 
z
" transform="scale(0.015625)"/>
      <path id="DejaVuSans-63" d="M 3122 3366 
L 3122 2828 
Q 2878 2963 2633 3030 
Q 2388 3097 2138 3097 
Q 1578 3097 1268 2742 
Q 959 2388 959 1747 
Q 959 1106 1268 751 
Q 1578 397 2138 397 
Q 2388 397 2633 464 
Q 2878 531 3122 666 
L 3122 134 
Q 2881 22 2623 -34 
Q 2366 -91 2075 -91 
Q 1284 -91 818 406 
Q 353 903 353 1747 
Q 353 2603 823 3093 
Q 1294 3584 2113 3584 
Q 2378 3584 2631 3529 
Q 2884 3475 3122 3366 
z
" transform="scale(0.015625)"/>
      <path id="DejaVuSans-74" d="M 1172 4494 
L 1172 3500 
L 2356 3500 
L 2356 3053 
L 1172 3053 
L 1172 1153 
Q 1172 725 1289 603 
Q 1406 481 1766 481 
L 2356 481 
L 2356 0 
L 1766 0 
Q 1100 0 847 248 
Q 594 497 594 1153 
L 594 3053 
L 172 3053 
L 172 3500 
L 594 3500 
L 594 4494 
L 1172 4494 
z
" transform="scale(0.015625)"/>
      <path id="DejaVuSans-69" d="M 603 3500 
L 1178 3500 
L 1178 0 
L 603 0 
L 603 3500 
z
M 603 4863 
L 1178 4863 
L 1178 4134 
L 603 4134 
L 603 4863 
z
" transform="scale(0.015625)"/>
      <path id="DejaVuSans-20" transform="scale(0.015625)"/>
      <path id="DejaVuSans-66" d="M 2375 4863 
L 2375 4384 
L 1825 4384 
Q 1516 4384 1395 4259 
Q 1275 4134 1275 3809 
L 1275 3500 
L 2222 3500 
L 2222 3053 
L 1275 3053 
L 1275 0 
L 697 0 
L 697 3053 
L 147 3053 
L 147 3500 
L 697 3500 
L 697 3744 
Q 697 4328 969 4595 
Q 1241 4863 1831 4863 
L 2375 4863 
z
" transform="scale(0.015625)"/>
      <path id="DejaVuSans-6f" d="M 1959 3097 
Q 1497 3097 1228 2736 
Q 959 2375 959 1747 
Q 959 1119 1226 758 
Q 1494 397 1959 397 
Q 2419 397 2687 759 
Q 2956 1122 2956 1747 
Q 2956 2369 2687 2733 
Q 2419 3097 1959 3097 
z
M 1959 3584 
Q 2709 3584 3137 3096 
Q 3566 2609 3566 1747 
Q 3566 888 3137 398 
Q 2709 -91 1959 -91 
Q 1206 -91 779 398 
Q 353 888 353 1747 
Q 353 2609 779 3096 
Q 1206 3584 1959 3584 
z
" transform="scale(0.015625)"/>
      <path id="DejaVuSans-77" d="M 269 3500 
L 844 3500 
L 1563 769 
L 2278 3500 
L 2956 3500 
L 3675 769 
L 4391 3500 
L 4966 3500 
L 4050 0 
L 3372 0 
L 2619 2869 
L 1863 0 
L 1184 0 
L 269 3500 
z
" transform="scale(0.015625)"/>
     </defs>
     <use xlink:href="#DejaVuSans-45"/>
     <use xlink:href="#DejaVuSans-6c" transform="translate(63.183594 0)"/>
     <use xlink:href="#DejaVuSans-65" transform="translate(90.966797 0)"/>
     <use xlink:href="#DejaVuSans-63" transform="translate(152.490234 0)"/>
     <use xlink:href="#DejaVuSans-74" transform="translate(207.470703 0)"/>
     <use xlink:href="#DejaVuSans-72" transform="translate(246.679688 0)"/>
     <use xlink:href="#DejaVuSans-69" transform="translate(287.792969 0)"/>
     <use xlink:href="#DejaVuSans-63" transform="translate(315.576172 0)"/>
     <use xlink:href="#DejaVuSans-61" transform="translate(370.556641 0)"/>
     <use xlink:href="#DejaVuSans-6c" transform="translate(431.835938 0)"/>
     <use xlink:href="#DejaVuSans-20" transform="translate(459.619141 0)"/>
     <use xlink:href="#DejaVuSans-66" transform="translate(491.40625 0)"/>
     <use xlink:href="#DejaVuSans-6c" transform="translate(526.611328 0)"/>
     <use xlink:href="#DejaVuSans-6f" transform="translate(554.394531 0)"/>
     <use xlink:href="#DejaVuSans-77" transform="translate(615.576172 0)"/>
    </g>
   </g>
   <g id="patch_6">
    <path d="M 155.865762 614.808 
Q 160.848286 614.808 164.712776 614.808 
" style="fill: none; stroke: #e85a4f; stroke-linecap: round"/>
    <path d="M 160.712776 612.808 
L 164.712776 614.808 
L 160.712776 616.808 
z
" style="fill: #e85a4f; stroke: #e85a4f; stroke-linecap: round"/>
   </g>
   <g id="text_12">
    <!-- Heat flow -->
    <g style="fill: #e85a4f" transform="translate(181.8 617.291437) scale(0.09 -0.09)">
     <defs>
      <path id="DejaVuSans-48" d="M 628 4666 
L 1259 4666 
L 1259 2753 
L 3553 2753 
L 3553 4666 
L 4184 4666 
L 4184 0 
L 3553 0 
L 3553 2222 
L 1259 2222 
L 1259 0 
L 628 0 
L 628 4666 
z
" transform="scale(0.015625)"/>
     </defs>
     <use xlink:href="#DejaVuSans-48"/>
     <use xlink:href="#DejaVuSans-65" transform="translate(75.195312 0)"/>
     <use xlink:href="#DejaVuSans-61" transform="translate(136.71875 0)"/>
     <use xlink:href="#DejaVuSans-74" transform="translate(197.998047 0)"/>
     <use xlink:href="#DejaVuSans-20" transform="translate(237.207031 0)"/>
     <use xlink:href="#DejaVuSans-66" transform="translate(268.994141 0)"/>
     <use xlink:href="#DejaVuSans-6c" transform="translate(304.199219 0)"/>
     <use xlink:href="#DejaVuSans-6f" transform="translate(331.982422 0)"/>
     <use xlink:href="#DejaVuSans-77" transform="translate(393.164062 0)"/>
    </g>
   </g>
   <g id="line2d_3">
    <path d="M 408.78 315.66 
L 525.18 315.66 
" clip-path="url(#p490b26a321)" style="fill: none; stroke: #8b7355; stroke-width: 1.5; stroke-linecap: square"/>
   </g>
   <g id="line2d_4">
    <path d="M 466.98 356.4 
L 466.98 274.92 
" clip-path="url(#p490b26a321)" style="fill: none; stroke: #8b7355; stroke-width: 1.5; stroke-linecap: square"/>
   </g>
   <g id="line2d_5">
    <path d="M 887.184 160.848 
L 908.136 139.896 
" clip-path="url(#p490b26a321)" style="fill: none; stroke: #079bca; stroke-width: 2; stroke-linecap: square"/>
   </g>
   <g id="line2d_6">
    <path d="M 915.12 160.848 
L 936.072 139.896 
" clip-path="url(#p490b26a321)" style="fill: none; stroke: #079bca; stroke-width: 2; stroke-linecap: square"/>
   </g>
   <g id="line2d_7">
    <path d="M 943.056 160.848 
L 964.008 139.896 
" clip-path="url(#p490b26a321)" style="fill: none; stroke: #079bca; stroke-width: 2; stroke-linecap: square"/>
   </g>
   <g id="patch_7">
    <path d="M 379.4472 221.6088 
L 500.9688 221.6088 
Q 504.4608 221.6088 504.4608 218.1168 
L 504.4608 173.4192 
Q 504.4608 169.9272 500.9688 169.9272 
L 379.4472 169.9272 
Q 375.9552 169.9272 375.9552 173.4192 
L 375.9552 218.1168 
Q 375.9552 221.6088 379.4472 221.6088 
z
" clip-path="url(#p490b26a321)" style="fill: #2c3e50; stroke: #1a252f; stroke-width: 2; stroke-linejoin: miter"/>
   </g>
   <g id="patch_8">
    <path d="M 749.5992 228.5928 
L 801.2808 228.5928 
Q 808.2648 228.5928 808.2648 221.6088 
L 808.2648 141.9912 
Q 808.2648 135.0072 801.2808 135.0072 
L 749.5992 135.0072 
Q 742.6152 135.0072 742.6152 141.9912 
L 742.6152 221.6088 
Q 742.6152 228.5928 749.5992 228.5928 
z
" clip-path="url(#p490b26a321)" style="fill: #2a9749; stroke: #1e6b35; stroke-width: 2; stroke-linejoin: miter"/>
   </g>
   <g id="line2d_8">
    <path d="M 915.12 223.704 
L 915.12 139.896 
" clip-path="url(#p490b26a321)" style="fill: none; stroke: #1e4557; stroke-width: 4; stroke-linecap: square"/>
   </g>
   <g id="line2d_9">
    <path d="M 887.184 160.848 
L 943.056 160.848 
" clip-path="url(#p490b26a321)" style="fill: none; stroke: #1e4557; stroke-width: 3; stroke-linecap: square"/>
   </g>
   <g id="line2d_10">
    <path d="M 894.168 181.8 
L 936.072 181.8 
" clip-path="url(#p490b26a321)" style="fill: none; stroke: #1e4557; stroke-width: 3; stroke-linecap: square"/>
   </g>
   <g id="patch_9">
    <path d="M 732.1392 500.9688 
L 818.7408 500.9688 
Q 825.7248 500.9688 825.7248 493.9848 
L 825.7248 428.3352 
Q 825.7248 421.3512 818.7408 421.3512 
L 732.1392 421.3512 
Q 725.1552 421.3512 725.1552 428.3352 
L 725.1552 493.9848 
Q 725.1552 500.9688 732.1392 500.9688 
z
" clip-path="url(#p490b26a321)" style="fill: #ffffff; stroke: #1e4557; stroke-width: 2; stroke-linejoin: miter"/>
   </g>
   <g id="patch_10">
    <path d="M 620.3952 584.7768 
L 651.1248 584.7768 
Q 661.6008 584.7768 661.6008 574.3008 
L 661.6008 487.6992 
Q 661.6008 477.2232 651.1248 477.2232 
L 620.3952 477.2232 
Q 609.9192 477.2232 609.9192 487.6992 
L 609.9192 574.3008 
Q 609.9192 584.7768 620.3952 584.7768 
z
" clip-path="url(#p490b26a321)" style="fill: #e8e8e8; stroke: #1e4557; stroke-width: 2; stroke-linejoin: miter"/>
   </g>
   <g id="line2d_11">
    <path d="M 408.78 220.212 
L 408.78 171.324 
" clip-path="url(#p490b26a321)" style="fill: none; stroke: #1a252f; stroke-linecap: square"/>
   </g>
   <g id="line2d_12">
    <path d="M 440.208 220.212 
L 440.208 171.324 
" clip-path="url(#p490b26a321)" style="fill: none; stroke: #1a252f; stroke-linecap: square"/>
   </g>
   <g id="line2d_13">
    <path d="M 471.636 220.212 
L 471.636 171.324 
" clip-path="url(#p490b26a321)" style="fill: none; stroke: #1a252f; stroke-linecap: square"/>
   </g>
   <g id="line2d_14">
    <path d="M 377.352 203.916 
L 503.064 203.916 
" clip-path="url(#p490b26a321)" style="fill: none; stroke: #1a252f; stroke-linecap: square"/>
   </g>
   <g id="line2d_15">
    <path d="M 377.352 187.62 
L 503.064 187.62 
" clip-path="url(#p490b26a321)" style="fill: none; stroke: #1a252f; stroke-linecap: square"/>
   </g>
   <g id="line2d_16">
    <path d="M 384.336 178.308 
L 408.78 195.768 
" clip-path="url(#p490b26a321)" style="fill: none; stroke: #5d6d7e; stroke-opacity: 0.5; stroke-width: 2; stroke-linecap: square"/>
   </g>
   <g id="patch_11">
    <path d="M 765.6624 137.1024 
L 785.2176 137.1024 
Q 786.6144 137.1024 786.6144 135.7056 
L 786.6144 125.7534 
Q 786.6144 124.3566 785.2176 124.3566 
L 765.6624 124.3566 
Q 764.2656 124.3566 764.2656 125.7534 
L 764.2656 135.7056 
Q 764.2656 137.1024 765.6624 137.1024 
z
" clip-path="url(#p490b26a321)" style="fill: #555555; stroke: #333333; stroke-linejoin: miter"/>
   </g>
   <g id="patch_12">
    <path d="M 755.1864 212.7624 
L 795.6936 212.7624 
Q 797.0904 212.7624 797.0904 211.3656 
L 797.0904 197.6304 
Q 797.0904 196.2336 795.6936 196.2336 
L 755.1864 196.2336 
Q 753.7896 196.2336 753.7896 197.6304 
L 753.7896 211.3656 
Q 753.7896 212.7624 755.1864 212.7624 
z
" clip-path="url(#p490b26a321)" style="fill: #7bc67b; stroke: #2a9749; stroke-linejoin: miter"/>
   </g>
   <g id="patch_13">
    <path d="M 755.1864 190.0644 
L 795.6936 190.0644 
Q 797.0904 190.0644 797.0904 188.6676 
L 797.0904 174.9324 
Q 797.0904 173.5356 795.6936 173.5356 
L 755.1864 173.5356 
Q 753.7896 173.5356 753.7896 174.9324 
L 753.7896 188.6676 
Q 753.7896 190.0644 755.1864 190.0644 
z
" clip-path="url(#p490b26a321)" style="fill: #7bc67b; stroke: #2a9749; stroke-linejoin: miter"/>
   </g>
   <g id="patch_14">
    <path d="M 755.1864 167.3664 
L 795.6936 167.3664 
Q 797.0904 167.3664 797.0904 165.9696 
L 797.0904 152.2344 
Q 797.0904 150.8376 795.6936 150.8376 
L 755.1864 150.8376 
Q 753.7896 150.8376 753.7896 152.2344 
L 753.7896 165.9696 
Q 753.7896 167.3664 755.1864 167.3664 
z
" clip-path="url(#p490b26a321)" style="fill: #7bc67b; stroke: #2a9749; stroke-linejoin: miter"/>
   </g>
   <g id="patch_15">
    <path d="M 750.996 486.768 
C 757.787321 486.768 764.301401 484.06978 769.10359 479.26759 
C 773.90578 474.465401 776.604 467.951321 776.604 461.16 
C 776.604 454.368679 773.90578 447.854599 769.10359 443.05241 
C 764.301401 438.25022 757.787321 435.552 750.996 435.552 
C 744.204679 435.552 737.690599 438.25022 732.88841 443.05241 
C 728.08622 447.854599 725.388 454.368679 725.388 461.16 
C 725.388 467.951321 728.08622 474.465401 732.88841 479.26759 
C 737.690599 484.06978 744.204679 486.768 750.996 486.768 
z
" clip-path="url(#p490b26a321)" style="fill: #e8e8e8; stroke: #1e4557; stroke-width: 1.5; stroke-linejoin: miter"/>
   </g>
   <g id="patch_16">
    <path d="M 620.1624 566.6184 
L 651.3576 566.6184 
Q 652.7544 566.6184 652.7544 565.2216 
L 652.7544 551.952 
Q 652.7544 550.5552 651.3576 550.5552 
L 620.1624 550.5552 
Q 618.7656 550.5552 618.7656 551.952 
L 618.7656 565.2216 
Q 618.7656 566.6184 620.1624 566.6184 
z
" clip-path="url(#p490b26a321)" style="fill: #d41020"/>
   </g>
   <g id="patch_17">
    <path d="M 620.1624 548.2854 
L 651.3576 548.2854 
Q 652.7544 548.2854 652.7544 546.8886 
L 652.7544 533.619 
Q 652.7544 532.2222 651.3576 532.2222 
L 620.1624 532.2222 
Q 618.7656 532.2222 618.7656 533.619 
L 618.7656 546.8886 
Q 618.7656 548.2854 620.1624 548.2854 
z
" clip-path="url(#p490b26a321)" style="fill: #f23924"/>
   </g>
   <g id="patch_18">
    <path d="M 620.1624 529.9524 
L 651.3576 529.9524 
Q 652.7544 529.9524 652.7544 528.5556 
L 652.7544 515.286 
Q 652.7544 513.8892 651.3576 513.8892 
L 620.1624 513.8892 
Q 618.7656 513.8892 618.7656 515.286 
L 618.7656 528.5556 
Q 618.7656 529.9524 620.1624 529.9524 
z
" clip-path="url(#p490b26a321)" style="fill: #fd7435"/>
   </g>
   <g id="patch_19">
    <path d="M 620.1624 511.6194 
L 651.3576 511.6194 
Q 652.7544 511.6194 652.7544 510.2226 
L 652.7544 496.953 
Q 652.7544 495.5562 651.3576 495.5562 
L 620.1624 495.5562 
Q 618.7656 495.5562 618.7656 496.953 
L 618.7656 510.2226 
Q 618.7656 511.6194 620.1624 511.6194 
z
" clip-path="url(#p490b26a321)" style="fill: #fea446"/>
   </g>
   <g id="patch_20">
    <path d="M 620.1624 493.2864 
L 651.3576 493.2864 
Q 652.7544 493.2864 652.7544 491.8896 
L 652.7544 478.62 
Q 652.7544 477.2232 651.3576 477.2232 
L 620.1624 477.2232 
Q 618.7656 477.2232 618.7656 478.62 
L 618.7656 491.8896 
Q 618.7656 493.2864 620.1624 493.2864 
z
" clip-path="url(#p490b26a321)" style="fill: #feca66"/>
   </g>
   <g id="line2d_17">
    <path d="M 750.996 461.16 
L 763.8 461.16 
" clip-path="url(#p490b26a321)" style="fill: none; stroke: #1e4557; stroke-width: 2; stroke-linecap: square"/>
   </g>
   <g id="line2d_18">
    <path d="M 750.996 461.16 
L 757.398 450.071411 
" clip-path="url(#p490b26a321)" style="fill: none; stroke: #1e4557; stroke-width: 2; stroke-linecap: square"/>
   </g>
   <g id="line2d_19">
    <path d="M 750.996 461.16 
L 744.594 450.071411 
" clip-path="url(#p490b26a321)" style="fill: none; stroke: #1e4557; stroke-width: 2; stroke-linecap: square"/>
   </g>
   <g id="line2d_20">
    <path d="M 750.996 461.16 
L 738.192 461.16 
" clip-path="url(#p490b26a321)" style="fill: none; stroke: #1e4557; stroke-width: 2; stroke-linecap: square"/>
   </g>
   <g id="line2d_21">
    <path d="M 750.996 461.16 
L 744.594 472.248589 
" clip-path="url(#p490b26a321)" style="fill: none; stroke: #1e4557; stroke-width: 2; stroke-linecap: square"/>
   </g>
   <g id="line2d_22">
    <path d="M 750.996 461.16 
L 757.398 472.248589 
" clip-path="url(#p490b26a321)" style="fill: none; stroke: #1e4557; stroke-width: 2; stroke-linecap: square"/>
   </g>
   <g id="line2d_23">
    <path d="M 802.212 480.366 
L 802.212 473.382 
" clip-path="url(#p490b26a321)" style="fill: none; stroke: #e85a4f; stroke-width: 2; stroke-linecap: square"/>
   </g>
   <g id="line2d_24">
    <path d="M 809.196 469.89 
L 809.196 462.906 
" clip-path="url(#p490b26a321)" style="fill: none; stroke: #e85a4f; stroke-width: 2; stroke-linecap: square"/>
   </g>
   <g id="line2d_25">
    <path d="M 816.18 459.414 
L 816.18 452.43 
" clip-path="url(#p490b26a321)" style="fill: none; stroke: #e85a4f; stroke-width: 2; stroke-linecap: square"/>
   </g>
   <g id="patch_21">
    <path d="M 239.627938 161.259776 
Q 304.018456 174.815675 364.032766 187.450267 
" clip-path="url(#p490b26a321)" style="fill: none; stroke: #ffb800; stroke-width: 4; stroke-linecap: round"/>
    <path d="M 358.779499 183.278554 
L 364.032766 187.450267 
L 357.543436 189.149853 
z
" clip-path="url(#p490b26a321)" style="fill: #ffb800; stroke: #ffb800; stroke-width: 4; stroke-linecap: round"/>
   </g>
   <g id="patch_22">
    <path d="M 511.827139 196.682079 
Q 625.918377 254.809016 729.108422 184.811618 
" clip-path="url(#p490b26a321)" style="fill: none; stroke: #000000; stroke-width: 3; stroke-linecap: round"/>
    <path d="M 722.458919 185.697122 
L 729.108422 184.811618 
L 725.827123 190.662522 
z
" clip-path="url(#p490b26a321)" style="stroke: #000000; stroke-width: 3; stroke-linecap: round"/>
   </g>
   <g id="patch_23">
    <path d="M 510.537523 218.657016 
Q 552.675236 383.610254 714.37725 424.919265 
" clip-path="url(#p490b26a321)" style="fill: none; stroke: #000000; stroke-width: 3; stroke-linecap: round"/>
    <path d="M 709.306489 420.527524 
L 714.37725 424.919265 
L 707.821401 426.340829 
z
" clip-path="url(#p490b26a321)" style="stroke: #000000; stroke-width: 3; stroke-linecap: round"/>
   </g>
   <g id="patch_24">
    <path d="M 738.79079 231.697877 
Q 668.777416 273.08889 670.547834 351.048855 
" clip-path="url(#p490b26a321)" style="fill: none; stroke: #000000; stroke-width: 3; stroke-linecap: round"/>
    <path d="M 673.41084 344.982292 
L 670.547834 351.048855 
L 667.412387 345.118512 
z
" clip-path="url(#p490b26a321)" style="stroke: #000000; stroke-width: 3; stroke-linecap: round"/>
   </g>
   <g id="patch_25">
    <path d="M 857.250501 181.8 
Q 838.298323 181.8 822.700247 181.8 
" clip-path="url(#p490b26a321)" style="fill: none; stroke: #000000; stroke-width: 3; stroke-linecap: round"/>
    <path d="M 828.700247 184.8 
L 822.700247 181.8 
L 828.700247 178.8 
z
" clip-path="url(#p490b26a321)" style="stroke: #000000; stroke-width: 3; stroke-linecap: round"/>
   </g>
   <g id="patch_26">
    <path d="M 819.341499 202.752 
Q 838.293677 202.752 853.891753 202.752 
" clip-path="url(#p490b26a321)" style="fill: none; stroke: #000000; stroke-width: 3; stroke-linecap: round"/>
    <path d="M 847.891753 199.752 
L 853.891753 202.752 
L 847.891753 205.752 
z
" clip-path="url(#p490b26a321)" style="stroke: #000000; stroke-width: 3; stroke-linecap: round"/>
   </g>
   <g id="patch_27">
    <path d="M 717.695824 475.830066 
Q 691.633592 485.603403 669.758751 493.806468 
" clip-path="url(#p490b26a321)" style="fill: none; stroke: #e85a4f; stroke-width: 4; stroke-linecap: round"/>
    <path d="M 676.430097 494.508715 
L 669.758751 493.806468 
L 674.323356 488.89074 
z
" clip-path="url(#p490b26a321)" style="fill: #e85a4f; stroke: #e85a4f; stroke-width: 4; stroke-linecap: round"/>
   </g>
   <g id="patch_28">
    <path d="M 606.090362 509.05735 
Q 583.38092 496.080526 564.55438 485.322503 
" clip-path="url(#p490b26a321)" style="fill: none; stroke: #e85a4f; stroke-width: 4; stroke-linecap: round"/>
    <path d="M 568.275422 490.904066 
L 564.55438 485.322503 
L 571.252256 485.694607 
z
" clip-path="url(#p490b26a321)" style="fill: #e85a4f; stroke: #e85a4f; stroke-width: 4; stroke-linecap: round"/>
   </g>
   <g id="patch_29">
    <path d="M 509.05735 459.426362 
Q 496.080526 436.71692 485.322503 417.89038 
" clip-path="url(#p490b26a321)" style="fill: none; stroke: #e85a4f; stroke-width: 4; stroke-linecap: round"/>
    <path d="M 485.694607 424.588256 
L 485.322503 417.89038 
L 490.904066 421.611422 
z
" clip-path="url(#p490b26a321)" style="fill: #e85a4f; stroke: #e85a4f; stroke-width: 4; stroke-linecap: round"/>
   </g>
   <g id="patch_30">
    <path d="M 319.584166 391.951945 
Q 269.101681 408.77944 222.861836 424.192721 
" clip-path="url(#p490b26a321)" style="fill: none; stroke: #e85a4f; stroke-width: 4; stroke-linecap: round"/>
    <path d="M 229.502619 425.141405 
L 222.861836 424.192721 
L 227.605252 419.449305 
z
" clip-path="url(#p490b26a321)" style="fill: #e85a4f; stroke: #e85a4f; stroke-width: 4; stroke-linecap: round"/>
   </g>
   <g id="line2d_26">
    <path d="M 216.72 146.88 
L 230.688 146.88 
" clip-path="url(#p490b26a321)" style="fill: none; stroke: #ff8c00; stroke-width: 3; stroke-linecap: round"/>
   </g>
   <g id="line2d_27">
    <path d="M 206.492169 122.187831 
L 216.369036 112.310964 
" clip-path="url(#p490b26a321)" style="fill: none; stroke: #ff8c00; stroke-width: 3; stroke-linecap: round"/>
   </g>
   <g id="line2d_28">
    <path d="M 181.8 111.96 
L 181.8 97.992 
" clip-path="url(#p490b26a321)" style="fill: none; stroke: #ff8c00; stroke-width: 3; stroke-linecap: round"/>
   </g>
   <g id="line2d_29">
    <path d="M 157.107831 122.187831 
L 147.230964 112.310964 
" clip-path="url(#p490b26a321)" style="fill: none; stroke: #ff8c00; stroke-width: 3; stroke-linecap: round"/>
   </g>
   <g id="line2d_30">
    <path d="M 146.88 146.88 
L 132.912 146.88 
" clip-path="url(#p490b26a321)" style="fill: none; stroke: #ff8c00; stroke-width: 3; stroke-linecap: round"/>
   </g>
   <g id="line2d_31">
    <path d="M 157.107831 171.572169 
L 147.230964 181.449036 
" clip-path="url(#p490b26a321)" style="fill: none; stroke: #ff8c00; stroke-width: 3; stroke-linecap: round"/>
   </g>
   <g id="line2d_32">
    <path d="M 181.8 181.8 
L 181.8 195.768 
" clip-path="url(#p490b26a321)" style="fill: none; stroke: #ff8c00; stroke-width: 3; stroke-linecap: round"/>
   </g>
   <g id="line2d_33">
    <path d="M 206.492169 171.572169 
L 216.369036 181.449036 
" clip-path="url(#p490b26a321)" style="fill: none; stroke: #ff8c00; stroke-width: 3; stroke-linecap: round"/>
   </g>
   <g id="patch_31">
    <path d="M 128.9544 440.9064 
L 136.8696 440.9064 
Q 138.2664 440.9064 138.2664 439.5096 
L 138.2664 412.9704 
Q 138.2664 411.5736 136.8696 411.5736 
L 128.9544 411.5736 
Q 127.5576 411.5736 127.5576 412.9704 
L 127.5576 439.5096 
Q 127.5576 440.9064 128.9544 440.9064 
z
" clip-path="url(#p490b26a321)" style="fill: #ffffff; stroke: #1e4557; stroke-linejoin: miter"/>
   </g>
   <g id="patch_32">
    <path d="M 458.3664 332.6544 
L 463.9536 332.6544 
Q 465.3504 332.6544 465.3504 331.2576 
L 465.3504 311.7024 
Q 465.3504 310.3056 463.9536 310.3056 
L 458.3664 310.3056 
Q 456.9696 310.3056 456.9696 311.7024 
L 456.9696 331.2576 
Q 456.9696 332.6544 458.3664 332.6544 
z
" clip-path="url(#p490b26a321)" style="fill: #ffffff; stroke: #1e4557; stroke-linejoin: miter"/>
   </g>
   <g id="patch_33">
    <path d="M 181.8 174.816 
C 189.208714 174.816 196.314983 171.872487 201.553735 166.633735 
C 206.792487 161.394983 209.736 154.288714 209.736 146.88 
C 209.736 139.471286 206.792487 132.365017 201.553735 127.126265 
C 196.314983 121.887513 189.208714 118.944 181.8 118.944 
C 174.391286 118.944 167.285017 121.887513 162.046265 127.126265 
C 156.807513 132.365017 153.864 139.471286 153.864 146.88 
C 153.864 154.288714 156.807513 161.394983 162.046265 166.633735 
C 167.285017 171.872487 174.391286 174.816 181.8 174.816 
z
" clip-path="url(#p490b26a321)" style="fill: #ffb800; stroke: #ff8c00; stroke-width: 2; stroke-linejoin: miter"/>
   </g>
   <g id="patch_34">
    <path d="M 132.912 454.176 
C 135.381571 454.176 137.750328 453.194829 139.496578 451.448578 
C 141.242829 449.702328 142.224 447.333571 142.224 444.864 
C 142.224 442.394429 141.242829 440.025672 139.496578 438.279422 
C 137.750328 436.533171 135.381571 435.552 132.912 435.552 
C 130.442429 435.552 128.073672 436.533171 126.327422 438.279422 
C 124.581171 440.025672 123.6 442.394429 123.6 444.864 
C 123.6 447.333571 124.581171 449.702328 126.327422 451.448578 
C 128.073672 453.194829 130.442429 454.176 132.912 454.176 
z
" clip-path="url(#p490b26a321)" style="fill: #4a90a4; stroke: #1e4557; stroke-linejoin: miter"/>
   </g>
   <g id="patch_35">
    <path d="M 129.7692 440.5572 
L 136.0548 440.5572 
Q 136.7532 440.5572 136.7532 439.8588 
L 136.7532 431.2452 
Q 136.7532 430.5468 136.0548 430.5468 
L 129.7692 430.5468 
Q 129.0708 430.5468 129.0708 431.2452 
L 129.0708 439.8588 
Q 129.0708 440.5572 129.7692 440.5572 
z
" clip-path="url(#p490b26a321)" style="fill: #4a90a4"/>
   </g>
   <g id="patch_36">
    <path d="M 461.16 342.432 
C 463.012178 342.432 464.788746 341.696122 466.098434 340.386434 
C 467.408122 339.076746 468.144 337.300178 468.144 335.448 
C 468.144 333.595822 467.408122 331.819254 466.098434 330.509566 
C 464.788746 329.199878 463.012178 328.464 461.16 328.464 
C 459.307822 328.464 457.531254 329.199878 456.221566 330.509566 
C 454.911878 331.819254 454.176 333.595822 454.176 335.448 
C 454.176 337.300178 454.911878 339.076746 456.221566 340.386434 
C 457.531254 341.696122 459.307822 342.432 461.16 342.432 
z
" clip-path="url(#p490b26a321)" style="fill: #e85a4f; stroke: #1e4557; stroke-linejoin: miter"/>
   </g>
   <g id="patch_37">
    <path d="M 458.8902 332.3052 
L 463.4298 332.3052 
Q 464.1282 332.3052 464.1282 331.6068 
L 464.1282 318.3372 
Q 464.1282 317.6388 463.4298 317.6388 
L 458.8902 317.6388 
Q 458.1918 317.6388 458.1918 318.3372 
L 458.1918 331.6068 
Q 458.1918 332.3052 458.8902 332.3052 
z
" clip-path="url(#p490b26a321)" style="fill: #e85a4f"/>
   </g>
   <g id="patch_38">
    <path d="M 510.7464 357.0984 
L 521.9208 357.0984 
Q 523.3176 357.0984 523.3176 355.7016 
L 523.3176 341.7336 
Q 523.3176 340.3368 521.9208 340.3368 
L 510.7464 340.3368 
Q 509.3496 340.3368 509.3496 341.7336 
L 509.3496 355.7016 
Q 509.3496 357.0984 510.7464 357.0984 
z
" clip-path="url(#p490b26a321)" style="fill: #c4a484; stroke: #8b7355; stroke-linejoin: miter"/>
   </g>
   <g id="patch_39">
    <path d="M 510.7464 339.6384 
L 521.9208 339.6384 
Q 523.3176 339.6384 523.3176 338.2416 
L 523.3176 324.2736 
Q 523.3176 322.8768 521.9208 322.8768 
L 510.7464 322.8768 
Q 509.3496 322.8768 509.3496 324.2736 
L 509.3496 338.2416 
Q 509.3496 339.6384 510.7464 339.6384 
z
" clip-path="url(#p490b26a321)" style="fill: #c4a484; stroke: #8b7355; stroke-linejoin: miter"/>
   </g>
   <g id="patch_40">
    <path d="M 524.7144 357.0984 
L 535.8888 357.0984 
Q 537.2856 357.0984 537.2856 355.7016 
L 537.2856 341.7336 
Q 537.2856 340.3368 535.8888 340.3368 
L 524.7144 340.3368 
Q 523.3176 340.3368 523.3176 341.7336 
L 523.3176 355.7016 
Q 523.3176 357.0984 524.7144 357.0984 
z
" clip-path="url(#p490b26a321)" style="fill: #c4a484; stroke: #8b7355; stroke-linejoin: miter"/>
   </g>
   <g id="patch_41">
    <path d="M 524.7144 339.6384 
L 535.8888 339.6384 
Q 537.2856 339.6384 537.2856 338.2416 
L 537.2856 324.2736 
Q 537.2856 322.8768 535.8888 322.8768 
L 524.7144 322.8768 
Q 523.3176 322.8768 523.3176 324.2736 
L 523.3176 338.2416 
Q 523.3176 339.6384 524.7144 339.6384 
z
" clip-path="url(#p490b26a321)" style="fill: #c4a484; stroke: #8b7355; stroke-linejoin: miter"/>
   </g>
   <g id="patch_42">
    <path d="M 538.6824 357.0984 
L 549.8568 357.0984 
Q 551.2536 357.0984 551.2536 355.7016 
L 551.2536 341.7336 
Q 551.2536 340.3368 549.8568 340.3368 
L 538.6824 340.3368 
Q 537.2856 340.3368 537.2856 341.7336 
L 537.2856 355.7016 
Q 537.2856 357.0984 538.6824 357.0984 
z
" clip-path="url(#p490b26a321)" style="fill: #c4a484; stroke: #8b7355; stroke-linejoin: miter"/>
   </g>
   <g id="patch_43">
    <path d="M 538.6824 339.6384 
L 549.8568 339.6384 
Q 551.2536 339.6384 551.2536 338.2416 
L 551.2536 324.2736 
Q 551.2536 322.8768 549.8568 322.8768 
L 538.6824 322.8768 
Q 537.2856 322.8768 537.2856 324.2736 
L 537.2856 338.2416 
Q 537.2856 339.6384 538.6824 339.6384 
z
" clip-path="url(#p490b26a321)" style="fill: #c4a484; stroke: #8b7355; stroke-linejoin: miter"/>
   </g>
   <g id="text_13">
    <g id="patch_44">
     <path d="M 515.296406 516.248859 
L 546.703594 516.248859 
Q 548.503594 516.248859 548.503594 514.448859 
L 548.503594 505.647141 
Q 548.503594 503.847141 546.703594 503.847141 
L 515.296406 503.847141 
Q 513.496406 503.847141 513.496406 505.647141 
L 513.496406 514.448859 
Q 513.496406 516.248859 515.296406 516.248859 
z
" style="fill: #ffffff; opacity: 0.9; stroke: #e85a4f; stroke-linejoin: miter"/>
    </g>
    <!-- T_HK2 -->
    <g style="fill: #e85a4f" transform="translate(515.296406 512.326828) scale(0.09 -0.09)">
     <defs>
      <path id="DejaVuSans-Bold-4b" d="M 588 4666 
L 1791 4666 
L 1791 2963 
L 3525 4666 
L 4922 4666 
L 2675 2456 
L 5153 0 
L 3647 0 
L 1791 1838 
L 1791 0 
L 588 0 
L 588 4666 
z
" transform="scale(0.015625)"/>
      <path id="DejaVuSans-Bold-32" d="M 1844 884 
L 3897 884 
L 3897 0 
L 506 0 
L 506 884 
L 2209 2388 
Q 2438 2594 2547 2791 
Q 2656 2988 2656 3200 
Q 2656 3528 2436 3728 
Q 2216 3928 1850 3928 
Q 1569 3928 1234 3808 
Q 900 3688 519 3450 
L 519 4475 
Q 925 4609 1322 4679 
Q 1719 4750 2100 4750 
Q 2938 4750 3402 4381 
Q 3866 4013 3866 3353 
Q 3866 2972 3669 2642 
Q 3472 2313 2841 1759 
L 1844 884 
z
" transform="scale(0.015625)"/>
     </defs>
     <use xlink:href="#DejaVuSans-Bold-54"/>
     <use xlink:href="#DejaVuSans-Bold-5f" transform="translate(68.212891 0)"/>
     <use xlink:href="#DejaVuSans-Bold-48" transform="translate(118.212891 0)"/>
     <use xlink:href="#DejaVuSans-Bold-4b" transform="translate(201.904297 0)"/>
     <use xlink:href="#DejaVuSans-Bold-32" transform="translate(279.394531 0)"/>
    </g>
   </g>
   <g id="text_14">
    <!-- Irradiance -->
    <g style="fill: #ffb800" transform="translate(278.147109 151.992281) scale(0.09 -0.09)">
     <use xlink:href="#DejaVuSans-Bold-49"/>
     <use xlink:href="#DejaVuSans-Bold-72" transform="translate(37.207031 0)"/>
     <use xlink:href="#DejaVuSans-Bold-72" transform="translate(86.523438 0)"/>
     <use xlink:href="#DejaVuSans-Bold-61" transform="translate(135.839844 0)"/>
     <use xlink:href="#DejaVuSans-Bold-64" transform="translate(203.320312 0)"/>
     <use xlink:href="#DejaVuSans-Bold-69" transform="translate(274.902344 0)"/>
     <use xlink:href="#DejaVuSans-Bold-61" transform="translate(309.179688 0)"/>
     <use xlink:href="#DejaVuSans-Bold-6e" transform="translate(376.660156 0)"/>
     <use xlink:href="#DejaVuSans-Bold-63" transform="translate(447.851562 0)"/>
     <use xlink:href="#DejaVuSans-Bold-65" transform="translate(507.128906 0)"/>
    </g>
   </g>
   <g id="text_15">
    <!-- Charge -->
    <g transform="translate(603.756844 165.889969) scale(0.09 -0.09)">
     <defs>
      <path id="DejaVuSans-Bold-43" d="M 4288 256 
Q 3956 84 3597 -3 
Q 3238 -91 2847 -91 
Q 1681 -91 1000 561 
Q 319 1213 319 2328 
Q 319 3447 1000 4098 
Q 1681 4750 2847 4750 
Q 3238 4750 3597 4662 
Q 3956 4575 4288 4403 
L 4288 3438 
Q 3953 3666 3628 3772 
Q 3303 3878 2944 3878 
Q 2300 3878 1931 3465 
Q 1563 3053 1563 2328 
Q 1563 1606 1931 1193 
Q 2300 781 2944 781 
Q 3303 781 3628 887 
Q 3953 994 4288 1222 
L 4288 256 
z
" transform="scale(0.015625)"/>
      <path id="DejaVuSans-Bold-68" d="M 4056 2131 
L 4056 0 
L 2931 0 
L 2931 347 
L 2931 1625 
Q 2931 2084 2911 2256 
Q 2891 2428 2841 2509 
Q 2775 2619 2662 2680 
Q 2550 2741 2406 2741 
Q 2056 2741 1856 2470 
Q 1656 2200 1656 1722 
L 1656 0 
L 538 0 
L 538 4863 
L 1656 4863 
L 1656 2988 
Q 1909 3294 2193 3439 
Q 2478 3584 2822 3584 
Q 3428 3584 3742 3212 
Q 4056 2841 4056 2131 
z
" transform="scale(0.015625)"/>
     </defs>
     <use xlink:href="#DejaVuSans-Bold-43"/>
     <use xlink:href="#DejaVuSans-Bold-68" transform="translate(73.388672 0)"/>
     <use xlink:href="#DejaVuSans-Bold-61" transform="translate(144.580078 0)"/>
     <use xlink:href="#DejaVuSans-Bold-72" transform="translate(212.060547 0)"/>
     <use xlink:href="#DejaVuSans-Bold-67" transform="translate(261.376953 0)"/>
     <use xlink:href="#DejaVuSans-Bold-65" transform="translate(332.958984 0)"/>
    </g>
   </g>
   <g id="text_16">
    <!-- Direct -->
    <g transform="translate(599.439797 298.656281) scale(0.09 -0.09)">
     <defs>
      <path id="DejaVuSans-Bold-44" d="M 1791 3756 
L 1791 909 
L 2222 909 
Q 2959 909 3348 1275 
Q 3738 1641 3738 2338 
Q 3738 3031 3350 3393 
Q 2963 3756 2222 3756 
L 1791 3756 
z
M 588 4666 
L 1856 4666 
Q 2919 4666 3439 4514 
Q 3959 4363 4331 4000 
Q 4659 3684 4818 3271 
Q 4978 2859 4978 2338 
Q 4978 1809 4818 1395 
Q 4659 981 4331 666 
Q 3956 303 3431 151 
Q 2906 0 1856 0 
L 588 0 
L 588 4666 
z
" transform="scale(0.015625)"/>
     </defs>
     <use xlink:href="#DejaVuSans-Bold-44"/>
     <use xlink:href="#DejaVuSans-Bold-69" transform="translate(83.007812 0)"/>
     <use xlink:href="#DejaVuSans-Bold-72" transform="translate(117.285156 0)"/>
     <use xlink:href="#DejaVuSans-Bold-65" transform="translate(166.601562 0)"/>
     <use xlink:href="#DejaVuSans-Bold-63" transform="translate(234.423828 0)"/>
     <use xlink:href="#DejaVuSans-Bold-74" transform="translate(293.701172 0)"/>
    </g>
   </g>
   <g id="text_17">
    <!-- Discharge -->
    <g transform="translate(680.243203 270.649969) scale(0.09 -0.09)">
     <use xlink:href="#DejaVuSans-Bold-44"/>
     <use xlink:href="#DejaVuSans-Bold-69" transform="translate(83.007812 0)"/>
     <use xlink:href="#DejaVuSans-Bold-73" transform="translate(117.285156 0)"/>
     <use xlink:href="#DejaVuSans-Bold-63" transform="translate(176.806641 0)"/>
     <use xlink:href="#DejaVuSans-Bold-68" transform="translate(236.083984 0)"/>
     <use xlink:href="#DejaVuSans-Bold-61" transform="translate(307.275391 0)"/>
     <use xlink:href="#DejaVuSans-Bold-72" transform="translate(374.755859 0)"/>
     <use xlink:href="#DejaVuSans-Bold-67" transform="translate(424.072266 0)"/>
     <use xlink:href="#DejaVuSans-Bold-65" transform="translate(495.654297 0)"/>
    </g>
   </g>
   <g id="text_18">
    <!-- Import -->
    <g transform="translate(821.250141 158.976281) scale(0.09 -0.09)">
     <use xlink:href="#DejaVuSans-Bold-49"/>
     <use xlink:href="#DejaVuSans-Bold-6d" transform="translate(37.207031 0)"/>
     <use xlink:href="#DejaVuSans-Bold-70" transform="translate(141.40625 0)"/>
     <use xlink:href="#DejaVuSans-Bold-6f" transform="translate(212.988281 0)"/>
     <use xlink:href="#DejaVuSans-Bold-72" transform="translate(281.689453 0)"/>
     <use xlink:href="#DejaVuSans-Bold-74" transform="translate(331.005859 0)"/>
    </g>
   </g>
   <g id="text_19">
    <!-- Export -->
    <g transform="translate(821.636859 179.928281) scale(0.09 -0.09)">
     <defs>
      <path id="DejaVuSans-Bold-78" d="M 1422 1791 
L 159 3500 
L 1344 3500 
L 2059 2463 
L 2784 3500 
L 3969 3500 
L 2706 1797 
L 4031 0 
L 2847 0 
L 2059 1106 
L 1281 0 
L 97 0 
L 1422 1791 
z
" transform="scale(0.015625)"/>
     </defs>
     <use xlink:href="#DejaVuSans-Bold-45"/>
     <use xlink:href="#DejaVuSans-Bold-78" transform="translate(68.310547 0)"/>
     <use xlink:href="#DejaVuSans-Bold-70" transform="translate(132.8125 0)"/>
     <use xlink:href="#DejaVuSans-Bold-6f" transform="translate(204.394531 0)"/>
     <use xlink:href="#DejaVuSans-Bold-72" transform="translate(273.095703 0)"/>
     <use xlink:href="#DejaVuSans-Bold-74" transform="translate(322.412109 0)"/>
    </g>
   </g>
   <g id="text_20">
    <!-- Heat Loss -->
    <g style="fill: #e85a4f" transform="translate(244.212187 385.956281) scale(0.09 -0.09)">
     <defs>
      <path id="DejaVuSans-Bold-4c" d="M 588 4666 
L 1791 4666 
L 1791 909 
L 3903 909 
L 3903 0 
L 588 0 
L 588 4666 
z
" transform="scale(0.015625)"/>
     </defs>
     <use xlink:href="#DejaVuSans-Bold-48"/>
     <use xlink:href="#DejaVuSans-Bold-65" transform="translate(83.691406 0)"/>
     <use xlink:href="#DejaVuSans-Bold-61" transform="translate(151.513672 0)"/>
     <use xlink:href="#DejaVuSans-Bold-74" transform="translate(218.994141 0)"/>
     <use xlink:href="#DejaVuSans-Bold-20" transform="translate(266.796875 0)"/>
     <use xlink:href="#DejaVuSans-Bold-4c" transform="translate(301.611328 0)"/>
     <use xlink:href="#DejaVuSans-Bold-6f" transform="translate(365.332031 0)"/>
     <use xlink:href="#DejaVuSans-Bold-73" transform="translate(434.033203 0)"/>
     <use xlink:href="#DejaVuSans-Bold-73" transform="translate(493.554688 0)"/>
    </g>
   </g>
  </g>
 </g>
 <defs>
  <clipPath id="p490b26a321">
   <rect x="7.2" y="7.2" width="977.76" height="698.4"/>
  </clipPath>
 </defs>
</svg>
